<?xml version="1.0" standalone="no"?><!DOCTYPE svg PUBLIC "-//W3C//DTD SVG 1.1//EN" "http://www.w3.org/Graphics/SVG/1.1/DTD/svg11.dtd"><svg t="1546097874321" class="icon" style="" viewBox="0 0 1735 1024" version="1.1" xmlns="http://www.w3.org/2000/svg" p-id="555" xmlns:xlink="http://www.w3.org/1999/xlink" width="338.8671875" height="200"><defs><style type="text/css"></style></defs><path d="M953.915001 519.61503c-0.129925-1.781412-0.256962-3.588809-0.516811-5.373107l-0.360902-2.659126c-0.129925-0.877713-0.308932-1.755427-0.464842-2.63314a95.613023 95.613023 0 0 0-5.889919-20.196071c-5.295153-12.784589-13.041552-23.992759-22.263318-32.902706s-19.73123-15.729549-30.656452-20.121004c-10.925223-4.391455-22.029453-6.611723-32.567789-6.94664l-0.490826-0.025985H857.323212c-0.568781-0.025985-1.290585 0.025985-1.963306 0.05197-0.672721 0.025985-1.36854 0.077955-2.041261 0.10394a74.570998 74.570998 0 0 0-21.772491 4.700386c-4.391455 1.677472-8.47109 3.692748-12.215808 5.939002s-7.128535 4.726371-10.151449 7.359512-5.73401 5.347123-8.084203 8.136173a73.797224 73.797224 0 0 0-6.120897 8.36715 69.861949 69.861949 0 0 0-7.359512 15.651594 76.436139 76.436139 0 0 0-2.867004 12.293763c-0.20788 1.677472-0.412872 3.175937-0.464842 4.46941-0.077955 1.290585-0.15591 2.376178-0.15591 3.253891 0 1.729442-0.025985 2.63314-0.025985 2.633141s0.15591-0.903698 0.464842-2.610043c0.129925-0.851729 0.412872-1.885352 0.672721-3.149952 0.256962-1.2646 0.672721-2.68511 1.111578-4.287515 0.955668-3.175937 2.324208-7.05058 4.443424-11.338094 0.542796-1.085593 1.085593-2.168299 1.729442-3.279877 0.308932-0.542796 0.594766-1.111578 0.955669-1.677472l1.085593-1.703457c1.42051-2.324208 3.123967-4.622432 5.035303-6.972625 1.911337-2.350193 4.10562-4.622432 6.507784-6.89467a70.716565 70.716565 0 0 1 8.084203-6.406731 67.208598 67.208598 0 0 1 20.686897-9.400773 66.769742 66.769742 0 0 1 12.215808-1.989292 65.97287 65.97287 0 0 1 6.403844-0.103939l1.550435 0.077954c0.516812 0.025985 1.007638 0.025985 1.654374 0.10394 0.594766 0.077955 1.21263 0.129925 1.807397 0.181895l0.903698 0.077955h0.05197l0.620751 0.103939a83.564673 83.564673 0 0 1 26.859765 8.266098 80.408947 80.408947 0 0 1 23.787767 18.362689c3.435786 3.900628 6.611723 8.136173 9.296833 12.706635a76.762394 76.762394 0 0 1 6.715663 14.617971 80.784285 80.784285 0 0 1 3.692748 15.986511c0.10394 0.698706 0.20788 1.36854 0.256963 2.067247l0.155909 2.067246c0.129925 1.394525 0.129925 2.78905 0.181895 4.183575 0.025985 0.721804 0.025985 1.42051 0 2.041261l-0.05197 1.937322c0 0.334917 0 0.646736-0.025985 1.007638l-0.256962 3.640778-0.05197 0.594767c0.025985-0.15591-0.025985 0.360902 0 0l-0.025985 0.282947-0.129925 1.085593-0.282947 2.168298c-0.15591 1.446495-0.438857 2.867005-0.698706 4.3135l-0.360902 2.168299-0.490826 2.142314c-0.308932 1.446495-0.594766 2.867005-1.033624 4.287514a98.829381 98.829381 0 0 1-6.068926 16.685218c-5.139243 10.769313-12.189823 20.816823-20.972732 29.287912a99.204719 99.204719 0 0 1-14.30904 11.468019 98.136449 98.136449 0 0 1-16.24636 8.754037 95.500422 95.500422 0 0 1-17.692856 5.52613c-3.048899 0.646736-6.120897 1.111578-9.195781 1.47248l-2.324208 0.233865c-0.773774 0.077955-1.550435 0.15591-2.324208 0.181894l-2.324209 0.129925c-0.773774 0.025985-1.57642 0.10394-2.272238 0.077955h-3.796688l-5.604085-0.254075c0.069293 0.008662 0.444631 0.040421-0.077955-0.002887l0.077955 0.002887a0.118376 0.118376 0 0 1-0.025985-0.002887c-3.201922-0.334917-6.403844-0.594766-9.582668-1.137563l-2.376178-0.360902c-0.799759-0.129925-1.57642-0.308932-2.376178-0.464842-1.57642-0.334917-3.149952-0.620751-4.726372-0.981653l-4.674401-1.186646c-1.57642-0.360902-3.074884-0.929683-4.622432-1.36854-12.293763-3.770703-23.914805-9.582668-34.453141-16.890209a146.364494 146.364494 0 0 1-14.851835-12.163839c-4.674402-4.36547-8.909947-9.169796-12.83656-14.179114-0.955668-1.290585-1.963306-2.506103-2.867005-3.822673l-2.711095-3.926613c-1.703457-2.68511-3.435786-5.321138-4.934251-8.110188-1.602405-2.73708-2.94496-5.5781-4.365469-8.393135-0.646736-1.446495-1.2646-2.867005-1.911337-4.3135-0.672721-1.42051-1.163548-2.918975-1.755427-4.365469-2.220269-5.837949-4.079635-11.802936-5.347123-17.871863l-0.516811-2.272238-0.412872-2.272239c-0.256962-1.498465-0.594766-3.022914-0.799759-4.544477-0.20788-1.52445-0.386887-3.048899-0.594766-4.570462a34.415607 34.415607 0 0 1-0.233864-2.298223l-0.181895-2.298224c-0.308932-3.097982-0.282947-5.913017-0.412872-8.831991 0.025985-1.654374 0.077955-3.305862 0.10394-4.960236l0.05197-2.168299 0.181894-2.298223c0.233864-3.074884 0.386887-6.146881 0.825744-9.169796 0.181895-1.52445 0.360902-3.048899 0.542797-4.544477 0.233864-1.52445 0.516812-2.99693 0.747788-4.495394 1.989291-11.932861 5.373108-23.34891 9.634638-34.118224 4.26153-10.769313 9.709705-20.738868 15.755534-29.908664 6.042942-9.169796 12.862544-17.433006 19.991079-24.795405 14.283054-14.799866 30.165626-25.647134 45.196469-33.393532 1.885352-0.955668 3.770703-1.885352 5.604085-2.78905 1.885352-0.851729 4.648417-2.041261 5.552115-2.428148 0.903698-0.386887 1.807397-0.799759 2.711095-1.163548 0.903698-0.360902 1.807397-0.698706 2.711095-1.033623 1.807397-0.672721 3.539726-1.394525 5.295153-1.989292 3.513741-1.111578 6.845588-2.350193 10.151449-3.175937 1.628389-0.464842 3.227907-0.903698 4.804326-1.342555 1.57642-0.386887 3.123967-0.698706 4.622432-1.059608 12.059898-2.68511 21.850446-3.718733 28.514139-4.131605 1.677472-0.15591 3.149952-0.15591 4.443424-0.207879s2.350193-0.10394 3.227907-0.129925c0.958555-0.043308 1.637051-0.069293 2.075908-0.083729-0.43597-0.057744-1.094255-0.144361-1.997953-0.251188-0.851729-0.129925-1.911337-0.256962-3.201922-0.412872s-2.763065-0.386887-4.443424-0.464842c-3.357831-0.20788-7.567391-0.594766-12.475658-0.568781-1.238615-0.025985-2.532088-0.025985-3.848658-0.05197l-4.10562 0.15591c-1.42051 0.05197-2.89299 0.10394-4.391455 0.181894-1.498465 0.10394-3.022914 0.256962-4.622431 0.412872-1.602405 0.15591-3.227907 0.282947-4.908266 0.490827-1.654374 0.233864-3.357831 0.490827-5.113259 0.747789-3.513741 0.438857-7.128535 1.31657-10.925223 2.041261-1.885352 0.386887-4.778341 1.163548-5.759994 1.42051l-2.970945 0.773773c-0.981653 0.256962-1.963306 0.594766-2.970944 0.903699-2.015276 0.646736-4.05365 1.2646-6.120897 1.937321-2.041261 0.747789-4.10562 1.52445-6.224836 2.298224-8.393135 3.253892-17.098089 7.437467-25.904096 12.57671-8.806007 5.139243-17.536946 11.468019-26.060006 18.853516a180.817635 180.817635 0 0 0-24.122684 25.673119 176.804405 176.804405 0 0 0-19.835169 32.388781c-5.63007 11.828921-10.021524 24.691466-13.067537 38.171874-0.360902 1.703457-0.773774 3.383816-1.111578 5.087273-0.282947 1.729442-0.594766 3.435786-0.877713 5.165229-0.672721 3.461771-0.981653 6.94664-1.394525 10.460381l-0.308932 2.63314-0.181895 2.78905-0.308932 5.009319c-0.025985 3.744718-0.181895 7.671331 0.025985 11.26014 0.233864 7.333527 1.033623 14.747896 2.428148 22.081422 1.342555 7.359512 3.357831 14.643956 5.83795 21.798476 0.646736 1.781412 1.238615 3.588809 1.963306 5.347123l2.168299 5.295153c1.602405 3.461771 3.149952 6.972625 5.009319 10.330456a142.986452 142.986452 0 0 0 12.397702 19.526238c4.674402 6.172866 9.73569 12.111868 15.342662 17.562931s11.595057 10.512351 18.001788 15.082812c12.836559 9.039871 27.093629 16.272346 42.176442 20.972733l2.841019 0.877713c0.929683 0.282947 1.885352 0.568781 2.84102 0.799759l5.73401 1.42051c1.911337 0.438857 3.848658 0.773774 5.78598 1.163547 0.981653 0.181895 1.937321 0.412872 2.918974 0.542797l2.918975 0.412872c3.900628 0.620751 7.824354 0.929683 11.724981 1.290585 0.282947 0.025985-0.10394 0 0.721804 0.05197l5.68204 0.233864h2.376178l3.175937-0.025985c16.194391-0.386887 31.999008-4.10562 46.515926-10.512351a124.476515 124.476515 0 0 0 20.585846-11.571959 126.185746 126.185746 0 0 0 17.767923-15.134782c10.795298-11.081132 19.396313-24.044729 25.208277-37.862942a121.482472 121.482472 0 0 0 6.741648-21.177725c0.438857-1.781412 0.721804-3.588809 1.059608-5.373108l0.490826-2.68511 0.334917-2.711095c0.20788-1.807397 0.464842-3.588809 0.568782-5.399093l0.181894-2.68511 0.10394-1.342555 0.025985-0.334917c0-0.05197 0.025985-0.773774 0.025985-0.620751v-0.620752l0.05197-2.428148 0.025985-1.21263-0.025985-1.42051c-0.05197-1.894013-0.05197-3.90929-0.233865-5.664717z" p-id="556"></path><path d="M845.283524 0c-282.768095 0-511.998556 229.230461-511.998556 511.998556S562.515429 1024 845.283524 1024s511.998556-229.230461 511.998557-511.998556S1128.054507 0 845.283524 0z m336.764797 349.592694a95.855549 95.855549 0 0 0-1.47248 7.645346c-0.412872 2.918975-2.272238 11.26014-4.778342 21.876431 16.864225 11.390064 28.049297 31.407128 28.049297 54.23634 0 165.448987-72.212143 309.567228-283.325327 335.757158 0 0-70.251723 7.902308-210.365397-17.767923-0.568781-0.360902-1.085593-0.721804-1.550434-1.059608-15.755534-3.770703-30.942287-8.704954-42.641283-14.127145l-173.172289-80.270361c-12.888529-5.964987-12.059898-10.821283 2.633141-10.821283h137.194698c-25.595164-39.800263-40.496082-87.606775-40.496083-139.002095 0-138.771118 108.706544-251.27435 242.777276-251.27435 127.81991 0 232.576744 102.250731 242.081457 232.033947a228.716537 228.716537 0 0 0 6.302791-53.462566c0-24.200639 12.602695-45.274424 31.199249-56.199646-5.061288-20.274026-15.443715-62.245475-18.905486-78.514934h-0.233865c-11.647027 0-21.09977-10.047509-21.099769-22.445212s9.452743-22.445212 21.099769-22.445212 21.09977 10.047509 21.09977 22.445212c0 6.972625-2.970945 13.223446-7.671331 17.329066 4.391455 10.538336 28.306259 60.409206 35.668658 75.699899 5.399093 0.077955 10.616291 0.903698 15.573639 2.402163 3.071997-6.663693 5.448175-11.880891 6.455814-14.361009 1.342555-3.331846 3.796688-7.515422 6.611723-11.802936-5.139243-4.10562-8.445105-10.639388-8.445105-17.975803 0-12.397703 9.452743-22.445212 21.09977-22.445212s21.09977 10.047509 21.09977 22.445212-9.452743 22.445212-21.09977 22.445212c-1.2646 0-2.506103-0.129925-3.718733-0.360902l0.028872 0.020211z" p-id="557"></path></svg>